/* XPM */
static char *e9dbff7a38f246adef16a9d7996f4e78Ne96UFkoj1bP1YXt[] = {
/* columns rows colors chars-per-pixel */
"64 64 8 1 ",
"  c None",
". c black",
"X c #501000",
"o c #484858",
"O c #903828",
"+ c #E06848",
"@ c #C0C0D0",
"# c #F8F8F8",
/* pixels */
"                                                                ",
"                                                                ",
"                                                                ",
"                                                                ",
"                                                                ",
"                                                                ",
"                                                                ",
"                                                                ",
"                                                                ",
"                                                                ",
"                                                                ",
"                                                                ",
"                        XXXXXXXXXXXXXXXX                        ",
"                        XXXXXXXXXXXXXXXX                        ",
"                        XXXXXXXXXXXXXXXX                        ",
"                        XXXXXXXXXXXXXXXX                        ",
"                    XXXX++++++++++++++++XXXX                    ",
"                    XXXX++++++++++++++++XXXX                    ",
"                    XXXX++++++++++++++++XXXX                    ",
"                    XXXX++++++++++++++++XXXX                    ",
"                XXXX++++####++++OOOOOOOO++++XXXX                ",
"                XXXX++++####++++OOOOOOOO++++XXXX                ",
"                XXXX++++####++++OOOOOOOO++++XXXX                ",
"                XXXX++++####++++OOOOOOOO++++XXXX                ",
"            XXXX++++OOOO++++++++OOOOOOOOOOOO++++XXXX            ",
"            XXXX++++OOOO++++++++OOOOOOOOOOOO++++XXXX            ",
"            XXXX++++OOOO++++++++OOOOOOOOOOOO++++XXXX            ",
"            XXXX++++OOOO++++++++OOOOOOOOOOOO++++XXXX            ",
"            ....++++OOOOOOOO........OOOOOOOO++++....            ",
"            ....++++OOOOOOOO........OOOOOOOO++++....            ",
"            ....++++OOOOOOOO........OOOOOOOO++++....            ",
"            ....++++OOOOOOOO........OOOOOOOO++++....            ",
"            oooo....OOOO....@@@@@@@@....OOOO....oooo            ",
"            oooo....OOOO....@@@@@@@@....OOOO....oooo            ",
"            oooo....OOOO....@@@@@@@@....OOOO....oooo            ",
"            oooo....OOOO....@@@@@@@@....OOOO....oooo            ",
"            oooo####........@@@@@@@@........@@@@oooo            ",
"            oooo####........@@@@@@@@........@@@@oooo            ",
"            oooo####........@@@@@@@@........@@@@oooo            ",
"            oooo####........@@@@@@@@........@@@@oooo            ",
"                oooo########........########oooo                ",
"                oooo########........########oooo                ",
"                oooo########........########oooo                ",
"                oooo########........########oooo                ",
"                    oooo@@@@########@@@@oooo                    ",
"                    oooo@@@@########@@@@oooo                    ",
"                    oooo@@@@########@@@@oooo                    ",
"                    oooo@@@@########@@@@oooo                    ",
"                        oooooooooooooooo                        ",
"                        oooooooooooooooo                        ",
"                        oooooooooooooooo                        ",
"                        oooooooooooooooo                        ",
"                                                                ",
"                                                                ",
"                                                                ",
"                                                                ",
"                                                                ",
"                                                                ",
"                                                                ",
"                                                                ",
"                                                                ",
"                                                                ",
"                                                                ",
"                                                                "
};
