/* XPM */
static char *result[] = {
/* columns rows colors chars-per-pixel */
"64 64 34 1 ",
"  c black",
". c #070707",
"X c #080807",
"o c gray3",
"O c #090908",
"+ c #090909",
"@ c #0A0A08",
"# c #0A0A09",
"$ c gray4",
"% c #0B0B0A",
"& c #333316",
"* c #343416",
"= c #353517",
"- c #363616",
"; c #363617",
": c #373717",
"> c #383817",
", c #363618",
"< c #373718",
"1 c #383818",
"2 c #4A4A1D",
"3 c #49491E",
"4 c #4A4A1E",
"5 c #4B4B1E",
"6 c #4A4A1F",
"7 c #4B4B1F",
"8 c #4C4C1F",
"9 c #52521E",
"0 c #66661C",
"q c #6C6C1E",
"w c #6D6D1E",
"e c #6D6D1F",
"r c #6E6E1F",
"t c None",
/* pixels */
"tttttttttttttttttttttttttttttttttttttttttttttttttttttttttttttttt",
"tttttttttttttttttttttttttttttttttttttttttttttttttttttttttttttttt",
"tttttttttttttttttttttttttttttttttttttttttttttttttttttttttttttttt",
"tttttttttttttttttttttttttttttttttttttttttttttttttttttttttttttttt",
"tttttttttttttttttttttttt$$$$$$$$$$++tttttttttttttttttttttttttttt",
"tttttttttttttttttttttttt$$$$$$$$$$++tttttttttttttttttttttttttttt",
"tttttttttttttttttttttttt$$1<<11111++tttttttttttttttttttttttttttt",
"tttttttttttttttttttttttt$$<111<111++tttttttttttttttttttttttttttt",
"tttttttttttttttt$$$$$$$$$$11111111++++++++++tttttttttttttttttttt",
"tttttttttttttttt$$$$$$$$$$11111111++++++++++tttttttttttttttttttt",
"tttttttttttttttt$$1<111111111111111<111111++tttttttttttttttttttt",
"tttttttttttttttt$$111111111111111111111<11++tttttttttttttttttttt",
"tttttttttttt$$$$$$1<<1<1111111111111111111++++++tttttttttttttttt",
"tttttttttttt$$$$$$1111<1111111111111111111++++++tttttttttttttttt",
"tttttttttttt$$111111<1111111111111111111111111++tttttttttttttttt",
"tttttttttttt$$111:11111111:1111111111111111111++tttttttttttttttt",
"tttttttt$$$$$$<::1111111::111111111:1111111<11++++++tttttttttttt",
"tttttttt$$$$$$1:11111111:111111111111:11111111++++++tttttttttttt",
"tttttttt$$11<1-:11111111:::1111111111::::11111111<++tttttttttttt",
"tttttttt$$11<1:111:111111:11111111:1::111:111<1111++tttttttttttt",
"tttttttt$$1111::;11111111:1111111111:::111:<11<<11++++$$tttttttt",
"tttttttt$$11111111111:1111111111111111111111>11111++++$$tttttttt",
"tttttttt$$111<11111:111;;111111111;,;1111111111>111111$$tttttttt",
"tttttttt$$11<11=;;,,;;,,,;,;;,,,,=,,;,,;11111111:<1111$$tttttttt",
"tttt$$$$$$11111,,;,,,;;;,,,,;,,,,=,;,,,,,;,;11111:--:1$$tttttttt",
"tttt$$$$$$;;111;;,,,,,;,;;,,;++++;,;=;,;,;,,,;11111=;:$$tttttttt",
"tttt$$11<1,,;,;,,<<;,,*;;++++++++++++;,;;,,,;;,,,;1,,1$$tttttttt",
"tttt$$11<;;,;,,=,<<<<+++++++++++++++++++;,,,;,,;,;;,,1$$tttttttt",
"tttt$$ +<;,;,;,,;rrr+++++++++++++++++++++rre;,,;,,;<=;$$    tttt",
"tttt   +;;,,,;+++rrro++++++++++++++++++++wwr++o;,,;;;=++    tttt",
"tttt    ,<;;@++++rrr+++++++$+++++++++++++wwr++++++;;,;++    tttt",
"tttt    <<;++++++25rrrrrrrrrrrrrrrr88rrrrwww+++++++;,,++    tttt",
"tttt    <<+++++++33rrrrrrrrrrrrrrrr88rrrr99w+++o+++o&&++    tttt",
"tttt    ++++++++o22r+++o+o++++$+$+$+$+$+$99w++$o++++++$$    tttt",
"tttt    ++++X++++rrr++o+++++++$+$+$+$+$+$www++++++++++$$    tttt",
"tttt    +++o+++++rrr++++++$++$+$+o+$+++++www++++++++++$$    tttt",
"tttt    +o+++++O+rrr++++++$+++++$++++++o+www++++oo++++$$    tttt",
"tttt    o+++++++orrr.+o$$$+++$++$o++++$+owww++++++++++$$    tttt",
"tttt    +++++++oorrr+++.++++++o+++++++$ #www$+o+++++++$$    tttt",
"tttt    +o++++oo+r77rrrrrrrr88rrrrrrrrrrrw66$++o++++++$$    tttt",
"tttt    ++++++o++r77rrrrrrrr88rrrrrrrrrrrw66+o+++++o++$$    tttt",
"tttt    +++o+++++rrro++++$$$$$$$$$$$++o++www++++++++++$$    tttt",
"tttt    ++++++++.rrr++++$$$$$$$$$$$$$++++www++++++++++$%    tttt",
"tttt    +++++++++rrr+++$$$$$$$$$$$$$+++++www+++++++++$$$    tttt",
"tttt    +++++++++rrr+++++$+++o$$+++++++++www+++++++++$$$    tttt",
"tttt    +++++++++rrr+++++$+++++++++++++++www+++++o++$$$$    tttt",
"tttt    ++++++O++34wwwwwwwwwwwwwwww88wwwwwww+$$$+++$$$$$    tttt",
"tttt    +++++++++33wwwwwwwwwwwwwwww88wwwwwww+$$$$$$$$$$$    tttt",
"tttttttt    ++++o33r+++++++++++++++++++++66w$$$$        tttttttt",
"tttttttt    +o+++rrr$$$$$$$$$$+++++o$$$$$66w$$$$        tttttttt",
"tttttttt    +++++rrr+++++++++$$$$$$$$$$$$www$$$$        tttttttt",
"tttttttt    +++++rrr+++++++++$$$$$$$$$$$$qq0$$$$        tttttttt",
"tttttttttttt                $$$$$$$$            tttttttttttttttt",
"tttttttttttt                $$$$$$$$            tttttttttttttttt",
"tttttttttttt                $$$$$$$$            tttttttttttttttt",
"tttttttttttt                $$$$$$$$            tttttttttttttttt",
"tttttttttttttttttttttttt                tttttttttttttttttttttttt",
"tttttttttttttttttttttttt                tttttttttttttttttttttttt",
"tttttttttttttttttttttttt                tttttttttttttttttttttttt",
"tttttttttttttttttttttttt                tttttttttttttttttttttttt",
"tttttttttttttttttttttttttttttttttttttttttttttttttttttttttttttttt",
"tttttttttttttttttttttttttttttttttttttttttttttttttttttttttttttttt",
"tttttttttttttttttttttttttttttttttttttttttttttttttttttttttttttttt",
"tttttttttttttttttttttttttttttttttttttttttttttttttttttttttttttttt"
};
