/* XPM */
static char *exit[] = {
/* columns rows colors chars-per-pixel */
"64 64 215 2 ",
"   c None",
".  c gray13",
"X  c #222222",
"o  c gray14",
"O  c #252525",
"+  c gray15",
"@  c #272727",
"#  c #282828",
"$  c gray16",
"%  c #2A2A2A",
"&  c gray17",
"*  c #2C2C2C",
"=  c #2D2D2D",
"-  c gray18",
";  c #2F2F2F",
":  c gray19",
">  c #313131",
",  c #323232",
"<  c gray20",
"1  c #343434",
"2  c #353535",
"3  c gray21",
"4  c #373737",
"5  c gray22",
"6  c #393939",
"7  c #3A3A3A",
"8  c gray23",
"9  c #3C3C3C",
"0  c gray24",
"q  c #3E3E3E",
"w  c gray25",
"e  c #414141",
"r  c gray26",
"t  c #434343",
"y  c #444444",
"u  c gray27",
"i  c #464646",
"p  c gray28",
"a  c #484848",
"s  c #494949",
"d  c gray29",
"f  c #4B4B4B",
"g  c #4C4C4C",
"h  c gray30",
"j  c #4E4E4E",
"k  c gray31",
"l  c #505050",
"z  c #515151",
"x  c gray32",
"c  c #535353",
"v  c gray33",
"b  c #555555",
"n  c #565656",
"m  c gray34",
"M  c #585858",
"N  c gray35",
"B  c #5A5A5A",
"V  c #5B5B5B",
"C  c gray36",
"Z  c #5D5D5D",
"A  c gray37",
"S  c #5F5F5F",
"D  c #606060",
"F  c gray38",
"G  c #626262",
"H  c gray39",
"J  c #646464",
"K  c #656565",
"L  c gray40",
"P  c #676767",
"I  c #686868",
"U  c DimGray",
"Y  c #6A6A6A",
"T  c gray42",
"R  c #6C6C6C",
"E  c #6D6D6D",
"W  c gray43",
"Q  c #6F6F6F",
"!  c gray44",
"~  c #717171",
"^  c #727272",
"/  c gray45",
"(  c #747474",
")  c gray46",
"_  c #767676",
"`  c gray47",
"'  c #797979",
"]  c gray48",
"[  c #7B7B7B",
"{  c #7C7C7C",
"}  c gray49",
"|  c #7E7E7E",
" . c gray50",
".. c #808080",
"X. c #818181",
"o. c gray51",
"O. c #838383",
"+. c #848484",
"@. c gray52",
"#. c #868686",
"$. c gray53",
"%. c #888888",
"&. c #898989",
"*. c gray54",
"=. c #8B8B8B",
"-. c #8D8D8D",
";. c #8E8E8E",
":. c gray56",
">. c #909090",
",. c gray57",
"<. c #929292",
"1. c #939393",
"2. c gray58",
"3. c #959595",
"4. c gray59",
"5. c #979797",
"6. c #989898",
"7. c gray60",
"8. c #9A9A9A",
"9. c #9B9B9B",
"0. c gray61",
"q. c #9D9D9D",
"w. c gray62",
"e. c #9F9F9F",
"r. c #A0A0A0",
"t. c gray63",
"y. c #A2A2A2",
"u. c gray64",
"i. c #A4A4A4",
"p. c #A5A5A5",
"a. c gray65",
"s. c #A7A7A7",
"d. c #A9A9A9",
"f. c #AAAAAA",
"g. c gray67",
"h. c #ACACAC",
"j. c gray68",
"k. c #AEAEAE",
"l. c #AFAFAF",
"z. c gray69",
"x. c #B1B1B1",
"c. c #B2B2B2",
"v. c gray70",
"b. c #B4B4B4",
"n. c gray71",
"m. c #B6B6B6",
"M. c #B7B7B7",
"N. c gray72",
"B. c #B9B9B9",
"V. c #BBBBBB",
"C. c #BCBCBC",
"Z. c gray74",
"A. c gray",
"S. c gray75",
"D. c #C0C0C0",
"F. c #C1C1C1",
"G. c gray76",
"H. c #C3C3C3",
"J. c gray77",
"K. c #C5C5C5",
"L. c #C6C6C6",
"P. c gray78",
"I. c #C8C8C8",
"U. c gray79",
"Y. c #CACACA",
"T. c #CBCBCB",
"R. c gray80",
"E. c #CDCDCD",
"W. c #CECECE",
"Q. c gray81",
"!. c #D0D0D0",
"~. c gray82",
"^. c #D2D2D2",
"/. c LightGray",
"(. c gray83",
"). c #D5D5D5",
"_. c gray84",
"`. c #D7D7D7",
"'. c #D8D8D8",
"]. c gray85",
"[. c #DADADA",
"{. c gray86",
"}. c gainsboro",
"|. c gray87",
" X c #DFDFDF",
".X c #E1E1E1",
"XX c #E2E2E2",
"oX c gray89",
"OX c #E4E4E4",
"+X c gray90",
"@X c #E6E6E6",
"#X c #E7E7E7",
"$X c gray91",
"%X c #E9E9E9",
"&X c #EAEAEA",
"*X c gray92",
"=X c #ECECEC",
"-X c gray93",
";X c #EEEEEE",
":X c #EFEFEF",
">X c #F1F1F1",
",X c gray95",
"<X c #F3F3F3",
"1X c #F4F4F4",
"2X c gray96",
"3X c #F6F6F6",
"4X c gray97",
"5X c #F8F8F8",
"6X c #F9F9F9",
"7X c gray98",
"8X c #FBFBFB",
"9X c gray99",
"0X c #FDFDFD",
"qX c #FEFEFE",
"wX c white",
/* pixels */
"                                                                # # # #                                                         ",
"                                                                # # # #                                                         ",
"                                            # # < < < < 0 0 0 0 0 0 0 0 0 0 < < < < < <                                         ",
"                                            # # < < < < 0 0 0 0 0 0 0 0 0 0 < < < < # #                                         ",
"                                    < < < < 0 0 y y k k k k n n n n n n n n k k y y y y 0 0 < <                                 ",
"                                    < < < < 0 0 y y k k k k n n n n n n n n k k y y y y 0 0 < <                                 ",
"                        # # # # < < 0 0 y y n n M M L L L L U U U U U U U U L L M M n n k k y y 0 0 # #                         ",
"                        # # # # < < 0 0 y y n n M M L L L L U U U U U U U U L L M M n n k k y y 0 0 # #                         ",
"                    # # # # < < y y n n M M U U ! ! ' ' ' ' +.+.+.+.+.+.+.+.' ' ! ! U U L L n n k k 0 0 < <                     ",
"                    # # # # < < y y n n M M U U ! ! ' ' ' ' +.+.+.+.+.+.+.+.' ' ! ! U U L L n n k k 0 0 < <                     ",
"                    # # < < y y n n L L ! ! ' ' &.&.<.<.0.0.0.0.0.0.0.0.0.0.<.<.&.&.+.+.' ' U U M M k k 0 0 < <                 ",
"                    # # < < y y n n L L ! ! ' ' &.&.<.<.0.0.0.0.0.0.0.0.0.0.<.<.&.&.+.+.' ' U U M M k k 0 0 < <                 ",
"                # # < < y y M M L L ' ' &.&.<.<.0.0.l.l.z.l.z.z.z.z.z.z.z.z.l.l.t.t.0.0.&.&.+.+.! ! M M k k 0 0 < <             ",
"                # # < < y y M M L L ' ' &.&.<.<.0.0.l.l.z.z.z.z.z.z.z.z.z.z.l.l.t.t.0.0.&.&.+.+.! ! M L k k 0 0 < <             ",
"            + + < < y y n n U U ' ' &.&.0.0.l.l.z.z.C.C.L.L.L.L.L.L.L.L.L.L.C.C.C.C.z.z.t.t.<.<.+.+.! ! M M k k 0 0 # #         ",
"            + + < < y y n n U U ' ' &.&.0.0.l.l.z.z.C.C.L.L.L.L.L.L.L.L.L.L.L.L.C.C.z.z.t.t.<.<.+.+.! ! M M k k 0 0 # #         ",
"            # # 0 0 k k L L ' ' &.&.0.0.l.l.C.C.L.L.T.T._._.'.'.'.'.'.'._._._._.T.T.L.L.z.z.t.t.<.<.+.+.U U M M y y < <         ",
"            # # 0 0 k k L L ' ' &.&.0.0.l.l.C.C.L.L.T.T._._.'.'.'.'.'.'._._._._.T.T.L.L.z.z.t.t.<.<.+.+.U U M M y y < <         ",
"        # # < < k k M M ! ! &.&.0.0.l.l.C.C.T.T._._.'.'.OXOX=X=X=X=X=X=X=X=XOXOX'.'.T.T.L.L.z.z.t.t.<.<.' ' U U n n 0 0 # #     ",
"        # # < < k k M M ! ! &.&.0.0.l.l.C.C.T.T._._.'.'.OXOX=X=X=X=X=X=X=X=XOXOX'.'.T.T.L.L.z.z.t.t.<.<.' ' U U n n 0 0 # #     ",
"        # # 0 0 n n U U ' ' <.<.l.l.C.C.T.T.'.'.OXOX=X=X1X1X5X5X5X5X5X5X5X5X1X1X=X=X'.'._._.L.L.z.z.t.t.&.&.! ! M M y y < <     ",
"        # # 0 0 n n U U +.+.<.<.l.l.C.C.T.T.'.'.OXOX=X=X1X1X5X5X5X5X5X5X5X5X1X1X=X=X'.'._._.L.L.z.z.t.t.&.&.! ! M M y y < <     ",
"        < < y y M M ! ! &.&.t.t.z.z.L.L.'.'.OXOX1X1X5X5X5X5X5X5X5X5X5X5X5X5X5X5X1X1X=X=X'.'.T._.C.C.l.l.<.<.' ' L L k k 0 0     ",
"        < < y y M M ! ! &.&.t.t.z.z.L.L.'.'.OXOX1X1X5X5X5X5X5X5X5X5X5X5X5X5X5X5X1X1X=X=X'.'.T.T.C.C.l.l.<.<.' ' L L k k 0 0     ",
"    # # < < k k L L ' ' <.<.l.l.C.C._._.OXOX=X=X5X5X5X5X5X5X5X5X5X5X5X5X5X5X5X5X5X5X1X1XOXOX'.'.T.L.z.z.0.t.&.&.! ! M n y y < < ",
"    # # < < k k L L ' ' <.<.l.l.C.C._._.OXOX=X=X5X5X5X5X5X5X5X5X5X5X5X5X5X5X5X5X5X5X1X1XOXOX'.'.L.L.z.z.t.t.+.+.! ! M M y y < < ",
"+ + # # 0 0 n n U U +.+.0.0.z.z.L.L._._.=X=X1X1X5X5X5X5X5X5X5X5X5X5X5X5X5X5X5X5X5X5X5X5X1X1X'.'.T.T.C.C.t.t.&.&.! ! M M y y # # ",
"+ + # # 0 0 n n U U +.+.0.0.z.z.L.L._.'.=X=X1X1X5X5X5X5X5X5X5X5X5X5X5X5X5X5X5X5X5X5X5X5X1X1X'.'.T.T.C.C.t.t.&.&.! ! M M y y # # ",
"+ + # # 0 0 n n U U +.+.0.0.z.z.T.T.'.'.=X=X5X5X5X5X5X5X5X5X5X5X5X5X5X5X5X5X5X5X5X5X5X5X1X1XOXOX_._.C.C.l.l.<.<.! ! M M y y < < ",
"+ + # # 0 0 n n U U +.+.0.0.z.z.T.T.'.'.=X=X5X5X5X5X5X5X5X5X5X5X5X5X5X5X5X5X5X5X5X5X5X5X1X1XOXOX_._.C.C.l.l.<.<.! ! M M y y < < ",
"+ + # # 0 0 n n U U &.&.t.t.C.C.T.T.'.'.1X1X5X5X5X5X5X5X5X5X5X5X5X5X5X5X5X5X5X5X5X5X5X5X1X1XOXOX_._.L.L.l.l.<.<.' ' L L k k < < ",
"+ + # # 0 0 n n U U &.&.t.t.z.z.T.T.'.'.1X1X5X5X5X5X5X5X5X5X5X5X5X5X5X5X5X5X5X5X5X5X5X5X1X1XOXOX_._.L.L.l.l.<.<.' ' L L y k < < ",
"+ + # # 0 0 n n U U &.&.t.t.C.C.T.T.'.'.=X=X5X5X5X5X5X5X5X5X5X5X5X5X5X5X5X5X5X5X5X5X5X5X1X1X=X=X_._.L.L.l.l.<.<.' ' M L k k < < ",
"+ + # # 0 0 n n U U &.&.t.t.z.z.T.T.'.'.=X=X5X5X5X5X5X5X5X5X5X5X5X5X5X5X5X5X5X5X5X5X5X5X1X1X=X=X_._.L.L.l.l.<.<.' ' L L k k < < ",
"+ + # # 0 0 n n U U +.+.0.0.z.z.T.T.'.'.=X=X5X5X5X5X5X5X5X5X5X5X5X5X5X5X5X5X5X5X5X5X5X5X1X1XOXOX_._.C.C.l.l.<.<.' ' M M y y < < ",
"+ + # # 0 0 n n U U +.+.0.0.z.z.T.T.'.'.=X=X5X5X5X5X5X5X5X5X5X5X5X5X5X5X5X5X5X5X5X5X5X5X1X1XOXOX_._.C.C.l.l.<.<.' ' M M y y < < ",
"    # # 0 0 k k L L +.+.0.0.z.z.L.L._._.OXOX1X1X5X5X5X5X5X5X5X5X5X5X5X5X5X5X5X5X5X5X5X5X=X=X'.'.T.T.C.C.t.t.&.&.! ! M M y y # # ",
"    # # 0 0 k k L L +.+.0.0.z.z.L.L._._.OXOX1X1X5X5X5X5X5X5X5X5X5X5X5X5X5X5X5X5X5X5X5X5X=X=X'.'.T.T.C.C.t.t.&.&.! ! M M y y # # ",
"        < < k k L L ' ' <.<.l.l.C.C._.T.'.'.=X=X5X5X5X5X5X5X5X5X5X5X5X5X5X5X5X5X5X5X1X1XOXOX_._.L.L.z.z.0.0.+.+.U U n n 0 0 # # ",
"        < < k k L L ' ' <.<.l.l.C.C._.T.'.'.=X=X5X5X5X5X5X5X5X5X5X5X5X5X5X5X5X5X5X5X1X1XOXOX_._.L.L.z.z.0.0.+.+.U U n n 0 0 # # ",
"        < < y y M M ! ! &.&.0.0.z.z.L.L._._.OXOX=X=X5X5X5X5X5X5X5X5X5X5X5X5X5X5X1X1X=X=X'.'.T.T.C.C.l.l.<.<.' ' L L k k 0 0     ",
"        < < y y M M U U &.&.0.0.z.z.L.L._._.OXOX=X1X5X5X5X5X5X5X5X5X5X5X5X5X5X5X1X1X=X=X'.'.T.T.C.C.l.l.<.<.' ' L L k k 0 0     ",
"        # # 0 0 k k L L ' ' <.<.t.t.C.C.T.T._._.OXOX=X=X1X1X1X1X5X5X5X5X1X1X=X=XOXOX'.'._._.L.L.z.z.0.0.+.+.! ! M M y y < <     ",
"        # # 0 0 k k L L ' ' <.<.t.t.C.C.T.T._._.OXOX=X=X1X1X1X1X5X5X5X5X1X1X=X1XOXOX'.'._._.L.L.z.z.0.0.+.+.! ! M M y y < <     ",
"            < < y y M M U ! +.+.0.0.l.l.C.C.T.T._._.'.'.OXOXOXOX=X=X=X=XOXOXOXOX_._.T.T.L.L.z.z.t.t.<.<.' ' L L k k 0 0 # #     ",
"            < < y y M M U ! +.+.0.0.l.l.C.C.T.T._._.'.'.OXOXOXOX=X=X=X=XOXOXOXOX_._.T.T.L.L.z.z.t.t.<.<.' ' L L k k 0 0 # #     ",
"            # # 0 0 k k L L ! ! +.+.0.0.l.l.z.z.L.L.T.T._._._._._._.'.'._._.T.T.L.L.C.C.l.l.t.t.<.<.' ' U U n n y y < <         ",
"            # # 0 0 k k L L ! ! +.+.0.0.l.l.z.z.L.L.T.T._._._._._._.'.'._._.T.T.L.L.C.C.l.l.t.t.<.<.' ' U U n n y y < <         ",
"            # # < < y y n n L L ! ! &.&.0.<.t.t.z.z.C.C.C.C.L.L.L.L.L.L.C.L.C.C.z.z.l.l.0.0.&.&.+.+.U U M M k k < < # #         ",
"            # # < < y y n n L L ! ! &.&.<.<.t.t.z.z.C.C.C.C.L.L.L.L.L.L.L.L.C.C.z.z.l.l.0.0.&.&.+.+.U U M M k k < < # #         ",
"                # # < < y y n n L L ! ! +.+.<.<.0.0.t.t.l.l.l.l.l.l.l.l.l.l.t.t.0.0.<.<.&.&.' ' U U M M k k 0 0 # # + +         ",
"                # # < < y y n n L L ! ! +.+.<.<.0.0.t.t.l.l.l.l.l.l.l.l.l.l.t.t.t.t.<.<.&.&.' ' U U M M k k 0 0 # # + +         ",
"                    # # < < y y n k M M U U ' ' +.+.&.&.<.<.<.<.0.0.0.0.<.<.&.&.&.&.' ' ! ! L L n n k k 0 0 # # + +             ",
"                    # # < < y y n k M M U U ' ' +.+.&.&.<.<.<.<.0.0.0.0.<.<.<.&.&.&.' ' ! ! L L M n k k 0 0 # # + +             ",
"                        # # < < 0 0 k k M n L L U U ! ! ' ' ' ' ' ' +.+.' ' ! ! ! ! L L M M n n y y < < # # + +                 ",
"                        # # < < 0 0 k k M n L L U U ! ! ' ' ' ' ' ' +.+.' ' ! ! U U L L M M n n y y < < # # + +                 ",
"                            # # # # 0 0 y y k k n n M M L L L L L L L L L L M M M n k k k k 0 0 < < # # + +                     ",
"                            # # # # 0 0 y y k k n n M M L L L L L L L L L L M M M M k k y y 0 0 < < # # + +                     ",
"                                        < < 0 0 0 0 y y k k k k k k k k k k y y y y 0 0 < < # #                                 ",
"                                        < < 0 0 0 0 y y k k k k k k k k k k y y y y 0 0 < < # #                                 ",
"                                                # # < < < < < < < < 0 0 < < < < # # # #                                         ",
"                                                # # < < < < < < < < 0 < < < < < # # # #                                         ",
"                                                    # # # # # # # # # # # # # # + +                                             ",
"                                                    # # # # # # # # # # # # # # + +                                             "
};
