/* XPM */
static char *pacman_up[] = {
/* columns rows colors chars-per-pixel */
"64 64 2 1 ",
"  c None",
". c #FFF100",
/* pixels */
"                                                                ",
"                                                                ",
"                                                                ",
"                                                                ",
"                                                                ",
"                                                                ",
"                                                                ",
"                                                                ",
"                                                                ",
"                                                                ",
"                                                                ",
"                                                                ",
"                                                                ",
"                                                                ",
"                                                                ",
"                                                                ",
"                                                                ",
"                                                                ",
"                                                                ",
"                                                                ",
"        ........                                ........        ",
"        ........                                ........        ",
"        ........                                ........        ",
"        ........                                ........        ",
"        ............                          ..........        ",
"        ............                          ..........        ",
"        ............                          ..........        ",
"        ............                          ..........        ",
"        ..............                    ..............        ",
"        ..............                    ..............        ",
"        ..............                    ..............        ",
"        ..............                    ..............        ",
"        ....................          ..................        ",
"        ....................          ..................        ",
"        ........................  ......................        ",
"        ........................  ......................        ",
"        ........................  ......................        ",
"        ........................  ......................        ",
"            ..........................................          ",
"            ..........................................          ",
"            ........................................            ",
"            ........................................            ",
"            ........................................            ",
"            ........................................            ",
"            ........................................            ",
"            ........................................            ",
"                ................................                ",
"                ................................                ",
"                      ....................                      ",
"                      ....................                      ",
"                      ....................                      ",
"                      ....................                      ",
"                        ................                        ",
"                        ................                        ",
"                                                                ",
"                                                                ",
"                                                                ",
"                                                                ",
"                                                                ",
"                                                                ",
"                                                                ",
"                                                                ",
"                                                                ",
"                                                                "
};
