/* XPM */
static char *result[] = {
/* columns rows colors chars-per-pixel */
"64 64 15 1 ",
"  c black",
". c #383818",
"X c #474757",
"o c #484858",
"O c #784040",
"+ c #904028",
"@ c #E07050",
"# c #D7976F",
"$ c #D89770",
"% c #D89870",
"& c #889090",
"* c #F0C098",
"= c #C0C8D8",
"- c #FFFDFD",
"; c None",
/* pixels */
";;;;;;;;;;;;;;;;;;;;;;;;oooooooooooooooo;;;;;;;;;;;;;;;;;;;;;;;;",
";;;;;;;;;;;;;;;;;;;;;;;;oooooooooooooooo;;;;;;;;;;;;;;;;;;;;;;;;",
";;;;;;;;;;;;;;;;;;;;;;;;oooooooooooooooo;;;;;;;;;;;;;;;;;;;;;;;;",
";;;;;;;;;;;;;;;;........&&&&&&&&&&&&&&&&........;;;;;;;;;;;;;;;;",
";;;;;;;;;;;;;;;;........&&&&&&&&&&&&&&&&........;;;;;;;;;;;;;;;;",
";;;;;;;;;;;;;;;;........&&&&&&&&&&&&&&&&........;;;;;;;;;;;;;;;;",
";;;;;;;;;;;;....oooo&&&&&&&&&&&&&&&&&&&&&&&&oooo....;;;;;;;;;;;;",
";;;;;;;;;;;;....oooo&&&&&&&&&&&&&&&&&&&&&&&&oooo....;;;;;;;;;;;;",
";;;;;;;;;;;;....oooo&&&&&&&&&&&&&&&&&&&&&&&&oooo....;;;;;;;;;;;;",
";;;;;;;;    oooooooo&&&&&&&&&&&&&&&&&&&&&&&&oooooooo    ;;;;;;;;",
";;;;;;;;    oooooooo&&&&&&&&&&&&&&&&&&&&&&&&oooooooo    ;;;;;;;;",
";;;;;;;;    oooooooo&&&&&&&&&&&&&&&&&&&&&&&&oooooooo    ;;;;;;;;",
";;;;;;;;    oooooooooooo&&&&&&&&&&&&&&&&oooooooooooo    ;;;;;;;;",
";;;;;;;;    oooooooooooo&&&&&&&&&&&&&&&&oooooooooooo    ;;;;;;;;",
";;;;;;;;    oooooooooooo&&&&&&&&&&&&&&&&oooooooooooo    ;;;;;;;;",
";;;;;;;;    oooooooooooooooooooooooooooooooooooooooo    ;;;;;;;;",
";;;;;;;;    oooooooooooooooooooooooooooooooooooooooo    ;;;;;;;;",
";;;;;;;;    oooooooooooooooooooooooooooooooooooooooo    ;;;;;;;;",
";;;;;;;;    oooooooooooooooooooooooooooooooooooooooo    ;;;;;;;;",
";;;;    %%%%    ................................    %%%%    ;;;;",
";;;;    %%%%    ................................    %%%%    ;;;;",
";;;;    %%%%    ................................    %%%%    ;;;;",
";;;;    %%%%    ................................    %%%%    ;;;;",
";;;;    ****        &&&&&&&&&&&&&&&&&&&&&&&&        ****    ;;;;",
";;;;    ****        &&&&&&&&&&&&&&&&&&&&&&&&        ****    ;;;;",
";;;;    ****        &&&&&&&&&&&&&&&&&&&&&&&&        ****    ;;;;",
";;;;;;;;        %%%%    Xooooooo    Xooooooo%%%%        ;;;;;;;;",
";;;;;;;;        %%%%    oooooooo    oooooooo%%%%        ;;;;;;;;",
";;;;;;;;        %%%%    oooooooo    Xooooooo%%%%        ;;;;;;;;",
";;;;;;;;        %%%%    XooXoooo    XooXoooo%%%%        ;;;;;;;;",
";;;;;;;;;;;;    ****    $%%$%%%%    %%%%%%%%****    ;;;;;;;;;;;;",
";;;;;;;;;;;;    ****    $%%%%%%%    %%%%%%%%****    ;;;;;;;;;;;;",
";;;;;;;;;;;;    ****    %%%$%%%%    #%%%%%%%****    ;;;;;;;;;;;;",
";;;;;;;;;;;;    ****    $%%$%%%%    #%%#%%%%****    ;;;;;;;;;;;;",
";;;;;;;;;;;;    %%%%************************%%%%    ;;;;;;;;;;;;",
";;;;;;;;;;;;    %%%%************************%%%%    ;;;;;;;;;;;;",
";;;;;;;;;;;;    %%%%************************%%%%    ;;;;;;;;;;;;",
";;;;;;;;    &&&&ooooOOOO%%%%%%%%%%%%%%%%OOOOoooo&&&&    ;;;;;;;;",
";;;;;;;;    &&&&ooooOOOO%%%%%%%%%%%%%%%%OOOOoooo&&&&    ;;;;;;;;",
";;;;;;;;    &&&&ooooOOOO%%%%%%%%%%%%%%%%OOOOoooo&&&&    ;;;;;;;;",
";;;;    oooo&&&&    oooo                oooo    &&&&oooo    ;;;;",
";;;;    oooo&&&&    oooo                oooo    &&&&oooo    ;;;;",
";;;;    oooo&&&&    oooo                oooo    &&&&oooo    ;;;;",
";;;;oooo----oooo    &&&&@@@@++++++++@@@@&&&&    oooo----oooo;;;;",
";;;;oooo----oooo    &&&&@@@@++++++++@@@@&&&&    oooo----oooo;;;;",
";;;;oooo----oooo    &&&&@@@@++++++++@@@@&&&&    oooo----oooo;;;;",
";;;;oooo========....&&&&@@@@@@@@@@@@++++&&&&....========oooo;;;;",
";;;;oooo========....&&&&@@@@@@@@@@@@++++&&&&....========oooo;;;;",
";;;;oooo========....&&&&@@@@@@@@@@@@++++&&&&....========oooo;;;;",
";;;;;;;;            oooo@@@@++++++++@@@@oooo            ;;;;;;;;",
";;;;;;;;            oooo@@@@++++++++@@@@oooo            ;;;;;;;;",
";;;;;;;;            oooo@@@@++++++++@@@@oooo            ;;;;;;;;",
";;;;;;;;;;;;....oooo        oooooooo        oooo....;;;;;;;;;;;;",
";;;;;;;;;;;;....oooo        oooooooo        oooo....;;;;;;;;;;;;",
";;;;;;;;;;;;....oooo        oooooooo        oooo....;;;;;;;;;;;;",
";;;;;;;;;;;;        oooooooo        oooooooo        ;;;;;;;;;;;;",
";;;;;;;;;;;;        oooooooo        oooooooo        ;;;;;;;;;;;;",
";;;;;;;;;;;;        oooooooo        oooooooo        ;;;;;;;;;;;;",
";;;;;;;;;;;;    ========    ;;;;;;;;    ========    ;;;;;;;;;;;;",
";;;;;;;;;;;;    ========    ;;;;;;;;    ========    ;;;;;;;;;;;;",
";;;;;;;;;;;;    ========    ;;;;;;;;    ========    ;;;;;;;;;;;;",
";;;;;;;;;;;;;;;;        ;;;;;;;;;;;;;;;;        ;;;;;;;;;;;;;;;;",
";;;;;;;;;;;;;;;;        ;;;;;;;;;;;;;;;;        ;;;;;;;;;;;;;;;;",
";;;;;;;;;;;;;;;;        ;;;;;;;;;;;;;;;;        ;;;;;;;;;;;;;;;;"
};
