/* XPM */
static char *result[] = {
/* columns rows colors chars-per-pixel */
"64 64 36 1 ",
"  c #0D240B",
". c #203417",
"X c #203418",
"o c #1B3128",
"O c #1B3228",
"+ c #1C3228",
"@ c #2D3D22",
"# c #2E3D22",
"$ c #2E3E22",
"% c #22362E",
"& c #345606",
"* c #345607",
"= c #345707",
"- c #355707",
"; c #34902B",
": c #34912B",
"> c #34912C",
", c #35912C",
"< c #10A067",
"1 c #10A167",
"2 c #11A168",
"3 c #80D05E",
"4 c #80D05F",
"5 c #80D15F",
"6 c #81D15F",
"7 c #3CB188",
"8 c #3DB188",
"9 c #3DB189",
"0 c #6FC8A0",
"q c #6FC9A0",
"w c #6FC9A1",
"e c #70C9A1",
"r c #B8F888",
"t c #B9F888",
"y c #B9F889",
"u c #B9F989",
/* pixels */
"oooo++++++++OOOOOOOO++++OOOOOOOOOOOOoooooooooooooooo++++OOOO++++",
"o+oo++++++++OOOOOOOO++++OOOOOOOOOO+Oooo+oo+ooo+oooo+++++OOOO++++",
"ooo+++++++++OOOOOOOO++++O+OOOOOO+OOO+ooooo+ooooo+ooo++++O+OO++++",
"oo+o++++++++OOOOOOOO++++OOOOOOOOOOO+o+ooooooooo+o+oo+++++O+O++++",
"++++++++++++OOOO++++OOOO                %%%%++++++++OOOOoooo++++",
"++++++++++++OOOO++++OOOO                %%%%++++++++OOOOoooo++++",
"++++++++++++OOOO++++OOOO                %%%%++++++++OOOOoooo++++",
"++++++++++++OOOO++++OOOO                %%%%++++++++OOOOoooo++++",
"++++++OOOOOO++++        ####........#$$#        ++++%%%%OO++++++",
"++++OOOOOOOO++++        #$##........$###        ++++%%%%O+OO++++",
"++++OOOOOOOO++++        ####........####        ++++%%%%OOOO++++",
"++++OOOOOOOO++++        ####........####        ++++%%%%OOOO++++",
"OOOOoooo++++    $$$$####$$$$$$$$############....    ++++++++++++",
"O+OOoooo++++    $$$$####$$$$$$$$##$######$##X.X.    ++++++++++++",
"OOOOoo+o++++    $$$$#$##$$$$$$$$#######$####....    ++++++++++++",
"OOOOoooo++++    $$$$####$$$$$$$$############....    ++++++++++++",
"++++OOOO    ....############@@@@####@@@@########....    ooooOOOO",
"++++OOOO    ....############@@@@####@@@@########....    ooooOOOO",
"++++OOOO    ....############@@@@####@@@@########....    ooooOOOO",
"++++OOOO    ..X.############@@@@####@@@@#$######....    ooooOO+O",
"eeeeeeee>>>>55555555ttttrrrr55555555yyyytttt33335555;;;;00000000",
"eeeeeeee>>>>55555555ttttrrrr55555555yyyytttt33335555;;;;00000000",
"eeeeeeee>>>>55555555ttttrrrr55555555yyyytttt33335555;;;;00000000",
"eeeeeeee>>>>55555555ttttrrrr55555555yyyytttt33335555;;;;00000000",
"eeee;;;;3333,,,,ttttttttttttttttyyyytttttttttttt;;;;5555>>>>0000",
"eeee;;;;3333,,,,ttttttttttttttttyyyytttttttttttt;;;;5555>>>>0000",
"eeee;;;;3333,,,,ttttttttttttttttyyyytttttttttttt;;;;5555>>>>0000",
"eeee;;;;3333,,,,ttttttttttttttttyyyytttttttttttt;;;;5555>>>>0000",
"eeee5555;;;;5555rrrrrrrrrrrrttttuuuuuuuuttttyyyy5555;;;;55558888",
"eeee5555;;;;5555rrrrrrrrrrrrttttuuuuuuuuttttyyyy5555;;;;55558888",
"eeee5555;;;;5555rrrrrrrrrrrrttttuuuuuuuuttttyyyy5555;;;;55558888",
"eeee5555;;;;5555rrrrrrrrrrrrttttuuuuuuuuttttyyyy5555;;;;55558888",
"0000----6666::::5555uuuuuuuu55553333ttttuuuu5555;;;;3333****<<<<",
"0000----6666::::5555uuuuuuuu55553333ttttuuuu5555;;;;3333****<<<<",
"0000----6666::::5555uuuuuuuu55553333ttttuuuu5555;;;;3333****<<<<",
"0000----6666::::5555uuuuuuuu55553333ttttuuuu5555;;;;3333****<<<<",
"qqqq;;;;5555;;;;55555555555544445555333333334444>>>>5555;;;;1111",
"qqqq;;;;5555;;;;55555555555544445555333333334444>>>>5555;;;;1111",
"qqqq;;;;5555;;;;55555555555544445555333333334444>>>>5555;;;;1111",
"qqqq;;;;5555;;;;55555555555544445555333333334444>>>>5555;;;;1111",
"wwww****;;;;55555555::::>>>>55556666;;;;;;;;55555555;;;;****1111",
"wwww****;;;;55555555::::>>>>55556666;;;;;;;;55555555;;;;****1111",
"wwww****;;;;55555555::::>>>>55556666;;;;;;;;55555555;;;;****1111",
"wwww****;;;;55555555::::>>>>55556666;;;;;;;;55555555;;;;****1111",
"eeee****;;;;;;;;333333335555;;;;::::444433335555>>>>>>>>&&&&<<<<",
"eeee****;;;;;;;;333333335555;;;;::::444433335555>>>>>>>>&&&&<<<<",
"eeee****;;;;;;;;333333335555;;;;::::444433335555>>>>>>>>&&&&<<<<",
"eeee****;;;;;;;;333333335555;;;;::::444433335555>>>>>>>>&&&&<<<<",
"eeee9999====::::;;;;;;;;>>>>55555555;;;;;;;;;;;;;;;;****22227777",
"eeee9999====::::;;;;;;;;>>>>55555555;;;;;;;;;;;;;;;;****22227777",
"eeee9999====::::;;;;;;;;>>>>55555555;;;;;;;;;;;;;;;;****22227777",
"eeee9999====::::;;;;;;;;>>>>55555555;;;;;;;;;;;;;;;;****22227777",
"eeee00001111;;;;========;;;;>>>>;;;;;;;;********;;;;11119999eeee",
"eeee00001111;;;;========;;;;>>>>;;;;;;;;********;;;;11119999eeee",
"eeee00001111;;;;========;;;;>>>>;;;;;;;;********;;;;11119999eeee",
"eeee00001111;;;;========;;;;>>>>;;;;;;;;********;;;;11119999eeee",
"wwww0000000022221111<<<<====****====****1111111111111111eeee0000",
"wwww0000000022221111<<<<====****====****1111111111111111eeee0000",
"wwww0000000022221111<<<<====****====****1111111111111111eeee0000",
"wwww0000000022221111<<<<====****====****1111111111111111eeee0000",
"eeeeeeeeeeeeeeee0000888811111111<<<<111111119999eeeeeeeeeeeeeeee",
"eeeeeeeeeeeeeeee0000888811111111<<<<111111119999eeeeeeeeeeeeeeee",
"eeeeeeeeeeeeeeee0000888811111111<<<<111111119999eeeeeeeeeeeeeeee",
"eeeeeeeeeeeeeeee0000888811111111<<<<111111119999eeeeeeeeeeeeeeee"
};
