/* XPM */
static char *wall[] = {
/* columns rows colors chars-per-pixel */
"64 64 129 2 ",
"   c None",
".  c #001429",
"X  c #031434",
"o  c #05143C",
"O  c #00183F",
"+  c #061441",
"@  c #011841",
"#  c #03184C",
"$  c #051753",
"%  c #031A53",
"&  c #061858",
"*  c #09185E",
"=  c #0A1863",
"-  c #0D1769",
";  c #0D186C",
":  c #0F1871",
">  c #101875",
",  c #13187C",
"<  c #161884",
"1  c #19178C",
"2  c #17188A",
"3  c #18188C",
"4  c #013A92",
"5  c #053A9B",
"6  c #073BA2",
"7  c #0B3AA4",
"8  c #0D3AA8",
"9  c #113AAD",
"0  c #1439B3",
"q  c #173AB9",
"w  c #1B39BE",
"e  c #1F3AC4",
"r  c #233ACB",
"t  c #263AD0",
"y  c #2B3AD5",
"u  c #2E3AD9",
"i  c #333ADE",
"p  c #363AE1",
"a  c #1468C6",
"s  c #4FC5F0",
"d  c #54C7F1",
"f  c #56C7F1",
"g  c #57C7F2",
"h  c #54C5F1",
"j  c #51C5F1",
"k  c #59C4F2",
"l  c #58C5F2",
"z  c #58C5F3",
"x  c #5BC5F3",
"c  c #59C6F2",
"v  c #5BC6F3",
"b  c #5AC7F3",
"n  c #5BC7F3",
"m  c #5CC6F3",
"M  c #59C7F4",
"N  c #5CC4F4",
"B  c #5CC4F5",
"V  c #5CC5F5",
"C  c #5DC5F5",
"Z  c #5DC7F4",
"A  c #5CC6F5",
"S  c #5FC6F4",
"D  c #5EC5F6",
"F  c #5EC6F6",
"G  c #5FC6F6",
"H  c #5CC6F5",
"J  c #52C8F1",
"K  c #53C8F1",
"L  c #53C9F1",
"P  c #53C8F2",
"I  c #54C9F0",
"U  c #55C9F0",
"Y  c #54C8F1",
"T  c #54C9F1",
"R  c #55C9F1",
"E  c #54C8F2",
"W  c #55C9F2",
"Q  c #61C4F6",
"!  c #60C5F6",
"~  c #61C6F6",
"^  c #60C7F6",
"/  c #61C7F6",
"(  c #63C6F7",
")  c #63C7F7",
"_  c #65C5F7",
"`  c #63C6F7",
"'  c #64C5F8",
"]  c #66C5F8",
"[  c #65C6F8",
"{  c #67C6F8",
"}  c #67C6F9",
"|  c #66C7F9",
" . c #66C6FA",
".. c #66C6F9",
"X. c #69C7F8",
"o. c #68C7F9",
"O. c #6AC5FA",
"+. c #6BC6FA",
"@. c #6DC7F9",
"#. c #6CC7FA",
"$. c #6FC6FA",
"%. c #6EC6FB",
"&. c #6FC6FB",
"*. c #6FC6FB",
"=. c #74C6FB",
"-. c #75C7FB",
";. c #77C6FB",
":. c #73C5FC",
">. c #77C6FB",
",. c #78C6FC",
"<. c #79C6FC",
"1. c #79C6FD",
"2. c #7CC5FD",
"3. c #7DC6FD",
"4. c #7DC7FD",
"5. c #79C6FD",
"6. c #67D5F4",
"7. c #68D5F5",
"8. c #6AD6F6",
"9. c #6BD7F6",
"0. c #6DD7F6",
"q. c #6CD7F6",
"w. c #6EDAF6",
"e. c #70DCF5",
"r. c #80C5FD",
"t. c #80C6FD",
"y. c #82C7FD",
"u. c #82C5FE",
"i. c #80C6FD",
/* pixels */
"    7.7.v v v v ~ ~ [ [ o.o.o.o.,.,.r.r.r.r.,.,.o.o.o.o.~ ~ ~ ~ v v v v g g g g g g s s g g g s s s g g g g g g g g g g 6.6.    ",
"    7.7.v v v v ~ ~ [ [ o.o.o.o.,.,.r.r.r.r.,.,.o.o.o.o.~ ~ ~ ~ v v v v g g g g g g s s g g g g s s g g g g g g g g g g 6.6.    ",
"7.7.a a 6 6 8 8 0 0 w w r r y y i i p p p p i i y y r r w w 0 0 8 8 5 5 5 5 4 4 4 4 4 4 4 4 4 4 4 4 4 4 4 4 4 4 4 4 4 4 a a 7.7.",
"7.7.a a 6 6 8 8 0 0 w w r r y y i i p p p p i i y y r r w w 0 0 8 8 5 5 5 5 4 4 4 4 4 4 4 4 4 4 4 4 4 4 4 4 4 4 4 4 4 4 a a 7.7.",
"W W 5 4 % % % % * * - - > > , , 2 2 3 3 3 3 3 3 , , > > - - * * $ $ # # @ @ @ @ @ @ @ @ @ @ @ @ @ @ @ @ + + + + @ @ % % 5 5 v v ",
"W W 5 4 % % % % * * - - > > , , 2 2 3 3 3 3 3 3 2 , > > - - * * $ $ # # @ @ @ @ @ @ @ @ @ @ @ @ @ @ @ @ + + @ + @ @ % % 5 5 v v ",
"W W 4 4 @ @ . . . . X X o o o o + + + + + + + + o o o o X X X X . . . . . . . . . . . . . . . . . . . . . . . . . . # # 8 8 v v ",
"W W 4 4 @ @ . . . . X X o o o o + + + + + + + + o o o o X X X X . . . . . . . . . . . . . . . . . . . . . . . . . . # # 8 8 v v ",
"W W 4 4 O O . . . . . . . . . . . . . . . . . . . . . . . . . . . . . . . . . . . . . . . . . . . . . . . . . . . . % % 9 9 v v ",
"W W 4 4 O O . . . . . . . . . . . . . . . . . . . . . . . . . . . . . . . . . . . . . . . . . . . . . . . . . . . . % % 9 9 v v ",
"W W 4 4 @ @ . . . . . . . . . . . . . . . . . . . . . . . . . . . . . . . . . . . . . . . . . . . . . . . . . . X X = = q q ~ ~ ",
"W W 4 4 @ @ . . . . . . . . . . . . . . . . . . . . . . . . . . . . . . . . . . . . . . . . . . . . . . . . . . X X = = q q ~ ~ ",
"W W 4 4 @ @ . . . . . . . . . . . . . . . . . . . . . . . . . . . . . . . . . . . . . . . . . . . . . . . . . . X X - - e e [ [ ",
"W W 4 4 @ @ . . . . . . . . . . . . . . . . . . . . . . . . . . . . . . . . . . . . . . . . . . . . . . . . . . X X - - e e [ [ ",
"W W 4 4 @ @ . . . . . . . . . . . . . . . . . . . . . . . . . . . . . . . . . . . . . . . . . . . . . . . . . . o o , , r r o.o.",
"W W 4 4 @ @ . . . . . . . . . . . . . . . . . . . . . . . . . . . . . . . . . . . . . . . . . . . . . . . . . . o o , , r r o.o.",
"W W 4 4 @ @ . . . . . . . . . . . . . . . . . . . . . . . . . . . . . . . . . . . . . . . . . . . . . . . . . . o o 2 2 u u -.-.",
"W W 4 4 @ @ . . . . . . . . . . . . . . . . . . . . . . . . . . . . . . . . . . . . . . . . . . . . . . . . . . o o 2 2 u u -.-.",
"W W 4 4 @ @ . . . . . . . . . . . . . . . . . . . . . . . . . . . . . . . . . . . . . . . . . . . . . . . . . . + + 3 3 i i ,.,.",
"W W 4 4 @ @ . . . . . . . . . . . . . . . . . . . . . . . . . . . . . . . . . . . . . . . . . . . . . . . . . . + + 3 3 i i ,.,.",
"W W 4 4 O O . . . . . . . . . . . . . . . . . . . . . . . . . . . . . . . . . . . . . . . . . . . . . . . . . . + + 3 3 p p r.r.",
"W W 4 4 O O . . . . . . . . . . . . . . . . . . . . . . . . . . . . . . . . . . . . . . . . . . . . . . . . . . + + 3 3 p p r.r.",
"W W 4 4 @ @ . . . . . . . . . . . . . . . . . . . . . . . . . . . . . . . . . . . . . . . . . . . . . . . . . . + + 3 3 i i ,.,.",
"W W 4 4 @ @ . . . . . . . . . . . . . . . . . . . . . . . . . . . . . . . . . . . . . . . . . . . . . . . . . . + + 3 3 i i ,.,.",
"g g 4 4 @ @ . . . . . . . . . . . . . . . . . . . . . . . . . . . . . . . . . . . . . . . . . . . . . . . . . . o o 2 2 u u -.-.",
"g g 4 4 @ @ . . . . . . . . . . . . . . . . . . . . . . . . . . . . . . . . . . . . . . . . . . . . . . . . . . o o 2 2 u u -.-.",
"v v 5 5 # # . . . . . . . . . . . . . . . . . . . . . . . . . . . . . . . . . . . . . . . . . . . . . . . . . . o o , , t t o.o.",
"v v 5 5 @ # . . . . . . . . . . . . . . . . . . . . . . . . . . . . . . . . . . . . . . . . . . . . . . . . . . o o , , t t o.o.",
"v v 8 8 # # . . . . . . . . . . . . . . . . . . . . . . . . . . . . . . . . . . . . . . . . . . . . . . . . . . X X : : r e ~ ~ ",
"v v 8 8 # # . . . . . . . . . . . . . . . . . . . . . . . . . . . . . . . . . . . . . . . . . . . . . . . . . . X X : : r e [ ~ ",
"~ ~ 9 9 & & . . . . . . . . . . . . . . . . . . . . . . . . . . . . . . . . . . . . . . . . . . . . . . . . . . X X = = w w ~ ~ ",
"~ ~ 9 9 & & . . . . . . . . . . . . . . . . . . . . . . . . . . . . . . . . . . . . . . . . . . . . . . . . . . X X = = w w ~ ~ ",
"~ ~ 0 0 = = X X . . . . . . . . . . . . . . . . . . . . . . . . . . . . . . . . . . . . . . . . . . . . . . . . . . & & 9 9 v v ",
"~ ~ q q = = X X . . . . . . . . . . . . . . . . . . . . . . . . . . . . . . . . . . . . . . . . . . . . . . . . . . & & 9 9 v v ",
"o.o.e e : : X X . . . . . . . . . . . . . . . . . . . . . . . . . . . . . . . . . . . . . . . . . . . . . . . . . . # # 8 8 v v ",
"o.o.e e - - X X . . . . . . . . . . . . . . . . . . . . . . . . . . . . . . . . . . . . . . . . . . . . . . . . . . # # 8 8 v v ",
"o.o.t t , , o o . . . . . . . . . . . . . . . . . . . . . . . . . . . . . . . . . . . . . . . . . . . . . . . . . . # @ 5 5 v v ",
"o.o.t t , , o o . . . . . . . . . . . . . . . . . . . . . . . . . . . . . . . . . . . . . . . . . . . . . . . . . . # # 5 5 v v ",
"-.-.u i 2 2 o o . . . . . . . . . . . . . . . . . . . . . . . . . . . . . . . . . . . . . . . . . . . . . . . . . . @ @ 4 4 g g ",
"-.-.i i 2 2 o o . . . . . . . . . . . . . . . . . . . . . . . . . . . . . . . . . . . . . . . . . . . . . . . . . . @ @ 4 4 g g ",
",.,.p p 3 3 + + . . . . . . . . . . . . . . . . . . . . . . . . . . . . . . . . . . . . . . . . . . . . . . . . . . @ @ 4 4 g g ",
",.,.p p 3 3 + + . . . . . . . . . . . . . . . . . . . . . . . . . . . . . . . . . . . . . . . . . . . . . . . . . . @ @ 4 4 g g ",
"r.r.p p 3 3 + + . . . . . . . . . . . . . . . . . . . . . . . . . . . . . . . . . . . . . . . . . . . . . . . . . . @ @ 4 4 W W ",
"r.r.p p 3 3 + + . . . . . . . . . . . . . . . . . . . . . . . . . . . . . . . . . . . . . . . . . . . . . . . . . . @ @ 4 4 W W ",
",.,.i i 3 3 + + . . . . . . . . . . . . . . . . . . . . . . . . . . . . . . . . . . . . . . . . . . . . . . . . . . @ @ 4 4 W W ",
",.,.i i 3 3 + + . . . . . . . . . . . . . . . . . . . . . . . . . . . . . . . . . . . . . . . . . . . . . . . . . . @ @ 4 4 W W ",
"-.-.u u 2 2 o o . . . . . . . . . . . . . . . . . . . . . . . . . . . . . . . . . . . . . . . . . . . . . . . . . . @ @ 4 4 W W ",
"-.-.u u 2 2 o o . . . . . . . . . . . . . . . . . . . . . . . . . . . . . . . . . . . . . . . . . . . . . . . . . . @ @ 4 4 W W ",
"o.o.t t , , o o . . . . . . . . . . . . . . . . . . . . . . . . . . . . . . . . . . . . . . . . . . . . . . . . . . @ @ 4 4 W W ",
"o.o.t t , , o o . . . . . . . . . . . . . . . . . . . . . . . . . . . . . . . . . . . . . . . . . . . . . . . . . . @ @ 4 4 W W ",
"[ [ r r - - X X . . . . . . . . . . . . . . . . . . . . . . . . . . . . . . . . . . . . . . . . . . . . . . . . . . @ @ 4 4 W W ",
"[ [ r r - - X X . . . . . . . . . . . . . . . . . . . . . . . . . . . . . . . . . . . . . . . . . . . . . . . . . . @ @ 4 4 W W ",
"[ [ q 0 = = X X . . . . . . . . . . . . . . . . . . . . . . . . . . . . . . . . . . . . . . . . . . . . . . . . . . @ @ 4 4 W W ",
"~ [ q 0 = = X X . . . . . . . . . . . . . . . . . . . . . . . . . . . . . . . . . . . . . . . . . . . . . . . . . . @ @ 4 4 W W ",
"v v 9 9 & & . . . . . . . . . . . . . . . . . . . . . . . . . . . . . . . . . . . . . . . . . . . . . . . . . . . . @ @ 4 4 I I ",
"v v 9 9 & & . . . . . . . . . . . . . . . . . . . . . . . . . . . . . . . . . . . . . . . . . . . . . . . . . . . . @ O 4 4 W W ",
"v v 8 8 # # . . . . . . . . . . . . . . . . . . . . . . . . . . . . X X X X o o o + + + + + o + o o X X X X . . . . @ @ 4 4 W W ",
"v v 8 8 # # . . . . . . . . . . . . . . . . . . . . . . . . . . . . X X X X o o o o + + + + o o o o X X X X . . . . @ @ 4 4 W W ",
"v v 5 5 % % @ @ @ @ @ @ @ @ O O @ @ @ @ @ @ @ @ @ @ @ @ # # $ % * * - - > > 2 2 3 3 1 1 1 1 2 2 , , > > - - * * % % % % 5 5 W W ",
"v v 5 5 % % @ @ @ @ @ @ @ @ @ O @ @ @ @ @ @ @ @ @ @ @ @ # # $ % * * - - > > 2 2 3 3 1 1 1 1 2 2 , , > > - - * * % % % % 5 5 W W ",
"w.w.a a 4 4 4 4 4 4 4 4 4 4 4 4 4 4 4 4 4 4 4 4 4 4 5 5 5 5 8 8 0 0 w w r r y y i i p p p p i i y y r r w w 0 0 8 8 6 6 a a e.e.",
"w.w.a a 4 4 4 4 4 4 4 4 4 4 4 4 4 4 4 4 4 4 4 4 4 4 5 5 5 5 8 8 0 0 w w r r y y i i p p p p i i y y r r w w 0 0 8 8 6 6 a a e.e.",
"    7.7.s s s s g g s s s s s s s s g g s s s s g g g g g g v v v v [ [ [ [ o.o.,.,.r.r.r.r.-.-.o.o.[ [ [ ~ v v v v v v 7.7.    ",
"    7.7.s s s s g g s s s s s s s s g g s s s s g g g g g g v v v v [ [ [ [ o.o.,.,.r.r.r.r.-.-.o.o.[ [ ~ ~ v v v v v v 7.7.    "
};
